<svg xmlns="http://www.w3.org/2000/svg" viewBox="0 0 1080 1080"><defs><style>.cls-1{fill:#10b981;}</style></defs><g id="Layer_2" data-name="Layer 2"><g id="Layer_1-2" data-name="Layer 1"><path class="cls-1" d="M540,134.93c223.35,0,405.07,181.72,405.07,405.07S763.35,945.07,540,945.07,134.93,763.35,134.93,540,316.65,134.93,540,134.93M540,0C241.77,0,0,241.77,0,540s241.77,540,540,540,540-241.77,540-540S838.23,0,540,0Z"/><path class="cls-1" d="M540,416.62A123.38,123.38,0,1,1,416.62,540,123.52,123.52,0,0,1,540,416.62m0-134.93c-142.66,0-258.31,115.65-258.31,258.31S397.34,798.31,540,798.31,798.31,682.66,798.31,540,682.66,281.69,540,281.69Z"/></g></g></svg>