<svg xmlns="http://www.w3.org/2000/svg" viewBox="0 0 905.29 107.59"><defs><style>.cls-1{fill:#10b981;}</style></defs><g id="Layer_2" data-name="Layer 2"><g id="Layer_1-2" data-name="Layer 1"><path class="cls-1" d="M324,106.6H299.9V38.66h24.29a36,36,0,0,1,17.64,4.08,27.51,27.51,0,0,1,11.38,11.65q4,7.59,4,18.18t-4,18.24a27.56,27.56,0,0,1-11.44,11.71Q334.33,106.6,324,106.6Zm-9.72-12.31h9.12A23.06,23.06,0,0,0,334.1,92,14.53,14.53,0,0,0,340.67,85q2.22-4.8,2.22-12.4t-2.22-12.31a14.37,14.37,0,0,0-6.53-7A23,23,0,0,0,323.42,51h-9.15Zm67.86,13.27a21.19,21.19,0,0,1-8.69-1.69,13.92,13.92,0,0,1-6-5.08,15.17,15.17,0,0,1-2.19-8.42,14.83,14.83,0,0,1,1.56-7.13A12.6,12.6,0,0,1,371,80.59a20.66,20.66,0,0,1,6.1-2.65,45.81,45.81,0,0,1,7.23-1.26q4.44-.47,7.17-.86a10.24,10.24,0,0,0,3.94-1.26,2.78,2.78,0,0,0,1.23-2.46v-.2a6.08,6.08,0,0,0-2-4.87,8.17,8.17,0,0,0-5.57-1.73A9.92,9.92,0,0,0,383.06,67a7.8,7.8,0,0,0-3,4.18L367,70.11a17.86,17.86,0,0,1,3.92-8,18.81,18.81,0,0,1,7.53-5.24A28.7,28.7,0,0,1,389.19,55a32.8,32.8,0,0,1,8.13,1,21,21,0,0,1,6.93,3.09,14.88,14.88,0,0,1,4.81,5.37,16.18,16.18,0,0,1,1.76,7.79V106.6h-13.4V99.53H397a14.39,14.39,0,0,1-3.28,4.22,15.38,15.38,0,0,1-4.94,2.82A20.58,20.58,0,0,1,382.13,107.56Zm4-9.75a11.87,11.87,0,0,0,5.51-1.23,9.83,9.83,0,0,0,3.75-3.38,8.71,8.71,0,0,0,1.36-4.81V83a7.63,7.63,0,0,1-1.83.8q-1.12.33-2.55.63l-2.85.5-2.59.36a17.21,17.21,0,0,0-4.34,1.16,6.89,6.89,0,0,0-2.89,2.16,5.21,5.21,0,0,0-1,3.31,5.15,5.15,0,0,0,2.09,4.42A9.17,9.17,0,0,0,386.17,97.81Zm62.71-42.16V66.26H418.2V55.65ZM425.17,43.44H439.3v47.5a6.53,6.53,0,0,0,.59,3,3.35,3.35,0,0,0,1.66,1.5,7,7,0,0,0,2.53.43,12.25,12.25,0,0,0,2-.17l1.52-.3L449.81,106c-.7.22-1.7.47-3,.76a24.11,24.11,0,0,1-4.68.57,21.45,21.45,0,0,1-8.95-1.36,12.46,12.46,0,0,1-5.94-4.85,14.7,14.7,0,0,1-2.09-8.29Zm47.45,64.12a21.19,21.19,0,0,1-8.69-1.69,13.92,13.92,0,0,1-6-5.08,15.17,15.17,0,0,1-2.19-8.42,14.83,14.83,0,0,1,1.56-7.13,12.6,12.6,0,0,1,4.25-4.65,20.66,20.66,0,0,1,6.1-2.65,45.81,45.81,0,0,1,7.23-1.26q4.44-.47,7.17-.86A10.18,10.18,0,0,0,486,74.56a2.78,2.78,0,0,0,1.23-2.46v-.2a6.08,6.08,0,0,0-2-4.87,8.15,8.15,0,0,0-5.57-1.73A9.92,9.92,0,0,0,473.55,67a7.8,7.8,0,0,0-3,4.18l-13.07-1.06a17.86,17.86,0,0,1,3.92-8,18.81,18.81,0,0,1,7.53-5.24A28.7,28.7,0,0,1,479.68,55a32.8,32.8,0,0,1,8.13,1,21,21,0,0,1,6.93,3.09,14.88,14.88,0,0,1,4.81,5.37,16.07,16.07,0,0,1,1.76,7.79V106.6h-13.4V99.53h-.4a14.39,14.39,0,0,1-3.28,4.22,15.38,15.38,0,0,1-4.94,2.82A20.58,20.58,0,0,1,472.62,107.56Zm4.05-9.75a11.85,11.85,0,0,0,5.5-1.23,9.83,9.83,0,0,0,3.75-3.38,8.71,8.71,0,0,0,1.36-4.81V83a7.72,7.72,0,0,1-1.82.8c-.76.22-1.61.43-2.56.63l-2.85.5-2.59.36a17.21,17.21,0,0,0-4.34,1.16,7,7,0,0,0-2.89,2.16,5.27,5.27,0,0,0-1,3.31,5.15,5.15,0,0,0,2.09,4.42A9.18,9.18,0,0,0,476.67,97.81Zm80.92-37.19a15,15,0,0,0-2-4.27,11.88,11.88,0,0,0-3.09-3.19,13.14,13.14,0,0,0-4.11-2,17.17,17.17,0,0,0-5.07-.7A16.27,16.27,0,0,0,534.2,53a16.91,16.91,0,0,0-6.1,7.53,29.39,29.39,0,0,0-2.19,12,30.44,30.44,0,0,0,2.15,12.07,16.92,16.92,0,0,0,6.11,7.6,16.65,16.65,0,0,0,9.32,2.58,18.47,18.47,0,0,0,8.33-1.72,12.32,12.32,0,0,0,5.3-4.94A14.7,14.7,0,0,0,559,80.63l2.92.43H544.38V70.24h28.43V78.8A29.86,29.86,0,0,1,569,94.19a25.72,25.72,0,0,1-10.42,9.89,32.42,32.42,0,0,1-15.19,3.45,32.8,32.8,0,0,1-16.78-4.21,29.32,29.32,0,0,1-11.28-12q-4-7.81-4-18.57A42.38,42.38,0,0,1,513.73,58a31.57,31.57,0,0,1,6.77-11,29.23,29.23,0,0,1,10.12-6.87,32.8,32.8,0,0,1,12.5-2.35,33.14,33.14,0,0,1,10.75,1.69,28.45,28.45,0,0,1,8.83,4.71A25.55,25.55,0,0,1,569,51.4a24.56,24.56,0,0,1,3.15,9.22Zm49,47A27.24,27.24,0,0,1,593,104.41a21.72,21.72,0,0,1-8.69-9.09,30.1,30.1,0,0,1-3.05-14,29.85,29.85,0,0,1,3.05-13.8,22.54,22.54,0,0,1,8.59-9.26A25.09,25.09,0,0,1,606,55a26.69,26.69,0,0,1,9.39,1.62A20.89,20.89,0,0,1,623,61.42a21.93,21.93,0,0,1,5.11,8.09,32.29,32.29,0,0,1,1.82,11.35v3.88h-43V76h29.72a10.76,10.76,0,0,0-1.33-5.4,9.53,9.53,0,0,0-3.68-3.69,10.58,10.58,0,0,0-5.41-1.36,10.83,10.83,0,0,0-5.7,1.5A10.4,10.4,0,0,0,596.67,71a11.24,11.24,0,0,0-1.43,5.48v8.32a14.34,14.34,0,0,0,1.4,6.54,10.2,10.2,0,0,0,4,4.24,12,12,0,0,0,6.14,1.5,13.16,13.16,0,0,0,4.31-.67,8.82,8.82,0,0,0,3.35-2,8.54,8.54,0,0,0,2.12-3.25l13.07.86a17.77,17.77,0,0,1-4.08,8.23,20.39,20.39,0,0,1-7.89,5.44A29.85,29.85,0,0,1,606.55,107.59Zm46.74-30.45V106.6H639.16V55.65h13.47v9h.6a14.13,14.13,0,0,1,5.67-7A17.13,17.13,0,0,1,668.55,55a17.93,17.93,0,0,1,9.26,2.32,15.75,15.75,0,0,1,6.13,6.63,22.18,22.18,0,0,1,2.19,10.22V106.6H672V76.68c0-3.12-.77-5.55-2.39-7.3A8.55,8.55,0,0,0,663,66.73,10.23,10.23,0,0,0,657.9,68a8.63,8.63,0,0,0-3.38,3.59A12.44,12.44,0,0,0,653.29,77.14Zm44.25,29.46V38.66h45V50.51H711.9V66.69h27.63V78.54H711.9V106.6ZM766,38.66V106.6H751.91V38.66Zm34.34,68.93A26,26,0,0,1,787,104.31a22.4,22.4,0,0,1-8.66-9.22,29.66,29.66,0,0,1-3.06-13.77,29.61,29.61,0,0,1,3.06-13.8A22.22,22.22,0,0,1,787,58.3a28.58,28.58,0,0,1,26.7,0,22.22,22.22,0,0,1,8.69,9.22,29.74,29.74,0,0,1,3.05,13.8,29.78,29.78,0,0,1-3.05,13.77,22.4,22.4,0,0,1-8.69,9.22A26,26,0,0,1,800.38,107.59Zm.07-10.94a8.82,8.82,0,0,0,5.87-2,12.41,12.41,0,0,0,3.55-5.51,26.15,26.15,0,0,0,0-15.85,12.35,12.35,0,0,0-3.55-5.51,8.69,8.69,0,0,0-5.87-2,9,9,0,0,0-6,2,12.46,12.46,0,0,0-3.62,5.51,27,27,0,0,0,0,15.85,12.52,12.52,0,0,0,3.62,5.51A9.11,9.11,0,0,0,800.45,96.65Zm43,9.95L829.56,55.65h14.29l7.9,34.23h.46l8.23-34.23h14l8.36,34h.43l7.76-34h14.27L891.45,106.6h-15l-8.75-32h-.63l-8.76,32Z"/><rect class="cls-1" x="36.73" y="100.14" width="34.11" height="7.31"/><rect class="cls-1" x="82.89" y="100.14" width="34.11" height="7.31"/><polygon class="cls-1" points="50.13 83.42 57.44 83.42 57.44 71.24 69.62 71.24 69.62 63.93 57.44 63.93 57.44 51.75 50.13 51.75 50.13 63.93 37.95 63.93 37.95 71.24 50.13 71.24 50.13 83.42"/><polygon class="cls-1" points="92.79 62.71 86.78 56.28 81.44 61.27 93.65 74.33 107.1 54.84 113.11 61.27 118.45 56.28 106.25 43.22 92.79 62.71"/><path class="cls-1" d="M164.08,94.19h-6.94l9.46-20.76-6.65-3-8,17.66L143.85,70.4l-6.65,3,9.46,20.76h-6.94a11,11,0,0,0-11,11v2.43h7.31v-2.43a3.65,3.65,0,0,1,3.65-3.65h24.36a3.65,3.65,0,0,1,3.66,3.65v2.43H175v-2.43a11,11,0,0,0-11-11Z"/><polygon class="cls-1" points="171.62 30.07 166.45 24.9 145.23 46.12 137.35 38.25 132.19 43.42 145.23 56.46 171.62 30.07"/><path class="cls-1" d="M13.71,63.68,1.57,87.17a14,14,0,0,0,.31,13.43A13.56,13.56,0,0,0,13,107.44l.75,0,.75,0a13.58,13.58,0,0,0,11.09-6.84,14,14,0,0,0,.31-13.43L13.72,63.68ZM19.21,97a6.21,6.21,0,0,1-5.12,3.19c-.25,0-.51,0-.76,0A6.21,6.21,0,0,1,8.21,97a6.68,6.68,0,0,1-.15-6.43l5.65-10.93,5.65,10.93A6.65,6.65,0,0,1,19.21,97Z"/><path class="cls-1" d="M248.38,100.07a39.94,39.94,0,0,0,15.24-31.75c0-.77,0-1.56-.08-2.5l-.19-3.21-3.21-.22c-.89-.06-1.64-.09-2.36-.09-11.88,0-22.45,6.14-29.1,15.61V55.79a28,28,0,1,0-7.31,0V77.91c-6.65-9.47-17.22-15.61-29.1-15.61-.72,0-1.47,0-2.36.09l-3.21.22-.18,3.21c-.06.94-.09,1.73-.09,2.49a39.93,39.93,0,0,0,15.24,31.75H186v7.31h78v-7.31H248.38Zm7.91-30.42C255.67,86,243.66,99.2,228.71,100,229.34,83.67,241.34,70.47,256.29,69.65ZM204.32,28A20.71,20.71,0,1,1,225,48.73,20.73,20.73,0,0,1,204.32,28ZM193.78,69.65c14.95.82,26.95,14,27.57,30.37C206.4,99.2,194.4,86,193.78,69.65Z"/><path class="cls-1" d="M238.43,28A13.4,13.4,0,1,0,225,41.42,13.41,13.41,0,0,0,238.43,28Zm-19.49,0A6.09,6.09,0,1,1,225,34.11,6.1,6.1,0,0,1,218.94,28Z"/></g></g></svg>